<?xml version="1.0" encoding="UTF-8" standalone="no"?>
<!DOCTYPE svg PUBLIC "-//W3C//DTD SVG 1.1//EN"
 "http://www.w3.org/Graphics/SVG/1.1/DTD/svg11.dtd">
<!-- Generated by graphviz version 2.43.0 (0)
 -->
<!-- Pages: 1 -->
<svg width="625pt" height="241pt"
 viewBox="0.00 0.00 624.94 241.00" xmlns="http://www.w3.org/2000/svg" xmlns:xlink="http://www.w3.org/1999/xlink">
<g id="graph0" class="graph" transform="scale(1 1) rotate(0) translate(4 237)">
<polygon fill="white" stroke="transparent" points="-4,4 -4,-237 620.94,-237 620.94,4 -4,4"/>
<text text-anchor="middle" x="308.47" y="-7.8" font-family="Times,serif" font-size="14.00">my pipeline</text>
<!-- list_directories -->
<g id="node1" class="node">
<title>list_directories</title>
<ellipse fill="none" stroke="black" cx="79.94" cy="-215" rx="79.89" ry="18"/>
<text text-anchor="middle" x="79.94" y="-211.3" font-family="Times,serif" font-size="14.00">list_directories</text>
</g>
<!-- list_directories_3 -->
<g id="node2" class="node">
<title>list_directories_3</title>
<ellipse fill="none" stroke="black" cx="218.94" cy="-128" rx="90.18" ry="18"/>
<text text-anchor="middle" x="218.94" y="-124.3" font-family="Times,serif" font-size="14.00">list_directories_3</text>
</g>
<!-- list_directories&#45;&gt;list_directories_3 -->
<g id="edge1" class="edge">
<title>list_directories&#45;&gt;list_directories_3</title>
<path fill="none" stroke="black" d="M75.48,-196.96C73.77,-186.38 73.71,-173.11 80.94,-164 88.78,-154.13 112.27,-146.57 137.7,-141.05"/>
<polygon fill="black" stroke="black" points="138.42,-144.47 147.51,-139.03 137.01,-137.62 138.42,-144.47"/>
<text text-anchor="middle" x="208.44" y="-167.8" font-family="Times,serif" font-size="14.00">list_directories To list_directories_3</text>
</g>
<!-- list_directories_4 -->
<g id="node3" class="node">
<title>list_directories_4</title>
<ellipse fill="none" stroke="black" cx="218.94" cy="-41" rx="90.18" ry="18"/>
<text text-anchor="middle" x="218.94" y="-37.3" font-family="Times,serif" font-size="14.00">list_directories_4</text>
</g>
<!-- list_directories_3&#45;&gt;list_directories_4 -->
<g id="edge2" class="edge">
<title>list_directories_3&#45;&gt;list_directories_4</title>
<path fill="none" stroke="black" d="M218.94,-109.8C218.94,-98.16 218.94,-82.55 218.94,-69.24"/>
<polygon fill="black" stroke="black" points="222.44,-69.18 218.94,-59.18 215.44,-69.18 222.44,-69.18"/>
<text text-anchor="middle" x="354.44" y="-80.8" font-family="Times,serif" font-size="14.00">list_directories_3 To list_directories_4</text>
</g>
<!-- list_directories_2 -->
<g id="node4" class="node">
<title>list_directories_2</title>
<ellipse fill="none" stroke="black" cx="357.94" cy="-215" rx="90.18" ry="18"/>
<text text-anchor="middle" x="357.94" y="-211.3" font-family="Times,serif" font-size="14.00">list_directories_2</text>
</g>
<!-- list_directories_2&#45;&gt;list_directories_3 -->
<g id="edge3" class="edge">
<title>list_directories_2&#45;&gt;list_directories_3</title>
<path fill="none" stroke="black" d="M354.35,-196.97C351.21,-186.12 345.61,-172.54 335.94,-164 325.33,-154.63 312.29,-147.76 298.81,-142.73"/>
<polygon fill="black" stroke="black" points="299.55,-139.29 288.95,-139.39 297.3,-145.91 299.55,-139.29"/>
<text text-anchor="middle" x="481.44" y="-167.8" font-family="Times,serif" font-size="14.00">list_directories_2 To list_directories_3</text>
</g>
</g>
</svg>
