<?xml version="1.0" encoding="UTF-8" standalone="no"?>
<!DOCTYPE svg PUBLIC "-//W3C//DTD SVG 1.1//EN"
 "http://www.w3.org/Graphics/SVG/1.1/DTD/svg11.dtd">
<!-- Generated by graphviz version 2.43.0 (0)
 -->
<!-- Pages: 1 -->
<svg width="321pt" height="283pt"
 viewBox="0.00 0.00 320.50 283.00" xmlns="http://www.w3.org/2000/svg" xmlns:xlink="http://www.w3.org/1999/xlink">
<g id="graph0" class="graph" transform="scale(1 1) rotate(0) translate(4 279)">
<polygon fill="white" stroke="transparent" points="-4,4 -4,-279 316.5,-279 316.5,4 -4,4"/>
<text text-anchor="middle" x="156.25" y="-7.8" font-family="Times,serif" font-size="14.00">Blast_Prion</text>
<!-- DownloadFasta -->
<g id="node1" class="node">
<title>DownloadFasta</title>
<ellipse fill="none" stroke="black" cx="71.5" cy="-185" rx="71.5" ry="18"/>
<text text-anchor="middle" x="71.5" y="-181.3" font-family="Times,serif" font-size="14.00">DownloadFasta</text>
</g>
<!-- MakeBlastdb -->
<g id="node2" class="node">
<title>MakeBlastdb</title>
<ellipse fill="none" stroke="black" cx="149.5" cy="-113" rx="62.5" ry="18"/>
<text text-anchor="middle" x="149.5" y="-109.3" font-family="Times,serif" font-size="14.00">MakeBlastdb</text>
</g>
<!-- DownloadFasta&#45;&gt;MakeBlastdb -->
<g id="edge1" class="edge">
<title>DownloadFasta&#45;&gt;MakeBlastdb</title>
<path fill="none" stroke="black" d="M89.98,-167.41C99.99,-158.43 112.51,-147.19 123.49,-137.34"/>
<polygon fill="black" stroke="black" points="126.04,-139.75 131.15,-130.47 121.37,-134.54 126.04,-139.75"/>
</g>
<!-- FastaAlignment -->
<g id="node3" class="node">
<title>FastaAlignment</title>
<ellipse fill="none" stroke="black" cx="149.5" cy="-41" rx="72.5" ry="18"/>
<text text-anchor="middle" x="149.5" y="-37.3" font-family="Times,serif" font-size="14.00">FastaAlignment</text>
</g>
<!-- MakeBlastdb&#45;&gt;FastaAlignment -->
<g id="edge2" class="edge">
<title>MakeBlastdb&#45;&gt;FastaAlignment</title>
<path fill="none" stroke="black" d="M149.5,-94.7C149.5,-86.98 149.5,-77.71 149.5,-69.11"/>
<polygon fill="black" stroke="black" points="153,-69.1 149.5,-59.1 146,-69.1 153,-69.1"/>
</g>
<!-- DownloadGenome -->
<g id="node4" class="node">
<title>DownloadGenome</title>
<ellipse fill="none" stroke="black" cx="228.5" cy="-257" rx="84" ry="18"/>
<text text-anchor="middle" x="228.5" y="-253.3" font-family="Times,serif" font-size="14.00">DownloadGenome</text>
</g>
<!-- UnzipGenome -->
<g id="node5" class="node">
<title>UnzipGenome</title>
<ellipse fill="none" stroke="black" cx="228.5" cy="-185" rx="67.5" ry="18"/>
<text text-anchor="middle" x="228.5" y="-181.3" font-family="Times,serif" font-size="14.00">UnzipGenome</text>
</g>
<!-- DownloadGenome&#45;&gt;UnzipGenome -->
<g id="edge3" class="edge">
<title>DownloadGenome&#45;&gt;UnzipGenome</title>
<path fill="none" stroke="black" d="M228.5,-238.7C228.5,-230.98 228.5,-221.71 228.5,-213.11"/>
<polygon fill="black" stroke="black" points="232,-213.1 228.5,-203.1 225,-213.1 232,-213.1"/>
</g>
<!-- UnzipGenome&#45;&gt;MakeBlastdb -->
<g id="edge4" class="edge">
<title>UnzipGenome&#45;&gt;MakeBlastdb</title>
<path fill="none" stroke="black" d="M209.78,-167.41C199.57,-158.37 186.78,-147.03 175.6,-137.13"/>
<polygon fill="black" stroke="black" points="177.62,-134.24 167.81,-130.23 172.98,-139.48 177.62,-134.24"/>
</g>
</g>
</svg>
